<svg width="24" height="24" viewBox="0 0 24 24" fill="none" xmlns="http://www.w3.org/2000/svg">
<g clip-path="url(#clip0_5_19)">
<path d="M15.6908 10.8614C15.7555 10.8611 15.8201 10.8608 15.8847 10.8604C16.0595 10.8596 16.2342 10.8594 16.4089 10.8593C16.5184 10.8593 16.6279 10.8591 16.7373 10.8588C17.1201 10.8579 17.5028 10.8576 17.8856 10.8576C18.2409 10.8577 18.5963 10.8567 18.9516 10.8552C19.2579 10.854 19.5641 10.8535 19.8703 10.8535C20.0527 10.8536 20.2351 10.8533 20.4175 10.8523C20.5893 10.8514 20.761 10.8514 20.9328 10.8521C21.0249 10.8522 21.117 10.8514 21.2091 10.8506C21.9755 10.856 22.6352 11.1284 23.19 11.6559C23.6935 12.1724 24.0107 12.8072 24.0126 13.5368C24.0128 13.5715 24.013 13.6062 24.0132 13.642C24.0138 13.7573 24.0137 13.8726 24.0136 13.9879C24.0139 14.071 24.0142 14.1542 24.0146 14.2373C24.0154 14.4624 24.0156 14.6874 24.0157 14.9125C24.0158 15.0534 24.016 15.1943 24.0162 15.3352C24.0171 15.8273 24.0175 16.3195 24.0174 16.8116C24.0173 17.2692 24.0183 17.7268 24.0198 18.1844C24.021 18.5782 24.0215 18.972 24.0215 19.3659C24.0214 19.6006 24.0217 19.8354 24.0227 20.0702C24.0236 20.2913 24.0236 20.5123 24.0229 20.7333C24.0228 20.814 24.0231 20.8947 24.0236 20.9754C24.0293 21.8338 23.8245 22.5533 23.2191 23.1899C22.5969 23.7965 21.9118 24.0142 21.0592 24.0136C20.9946 24.0139 20.9299 24.0142 20.8653 24.0146C20.6906 24.0154 20.5158 24.0156 20.3411 24.0157C20.2316 24.0157 20.1222 24.016 20.0127 24.0162C19.63 24.0171 19.2472 24.0174 18.8645 24.0174C18.5091 24.0173 18.1538 24.0183 17.7984 24.0198C17.4922 24.021 17.186 24.0215 16.8797 24.0215C16.6973 24.0214 16.515 24.0217 16.3326 24.0227C16.1608 24.0236 15.989 24.0236 15.8172 24.0229C15.7251 24.0228 15.633 24.0236 15.541 24.0244C14.7745 24.019 14.1148 23.7466 13.5601 23.2191C13.0565 22.7026 12.7393 22.0678 12.7375 21.3383C12.7373 21.3035 12.7371 21.2688 12.7368 21.233C12.7362 21.1177 12.7363 21.0024 12.7364 20.8871C12.7361 20.804 12.7358 20.7208 12.7354 20.6377C12.7346 20.4126 12.7344 20.1876 12.7343 19.9625C12.7343 19.8216 12.7341 19.6807 12.7338 19.5398C12.733 19.0477 12.7326 18.5555 12.7326 18.0634C12.7327 17.6058 12.7317 17.1482 12.7302 16.6906C12.729 16.2968 12.7285 15.903 12.7286 15.5091C12.7286 15.2744 12.7283 15.0396 12.7273 14.8048C12.7264 14.5838 12.7264 14.3627 12.7271 14.1417C12.7272 14.061 12.727 13.9803 12.7264 13.8996C12.7207 13.0412 12.9255 12.3217 13.531 11.6851C14.1531 11.0785 14.8383 10.8608 15.6908 10.8614ZM14.9063 13.0313C14.663 13.3389 14.6193 13.6146 14.6187 14.0035C14.6186 14.0341 14.6185 14.0647 14.6184 14.0963C14.6181 14.1982 14.6182 14.3001 14.6182 14.402C14.6181 14.4753 14.6179 14.5486 14.6177 14.6219C14.6173 14.8207 14.6172 15.0194 14.6172 15.2181C14.6171 15.3424 14.617 15.4667 14.6169 15.5909C14.6165 16.0248 14.6163 16.4586 14.6163 16.8925C14.6164 17.2964 14.6159 17.7003 14.6151 18.1042C14.6145 18.4515 14.6143 18.7987 14.6143 19.1459C14.6143 19.3531 14.6142 19.5603 14.6137 19.7675C14.6132 19.9624 14.6132 20.1573 14.6136 20.3522C14.6136 20.4236 14.6135 20.4949 14.6132 20.5663C14.6011 21.25 14.6011 21.25 14.9063 21.8438C15.2799 22.1391 15.6449 22.132 16.1049 22.1318C16.1592 22.132 16.2135 22.1321 16.2694 22.1323C16.4487 22.1327 16.628 22.1328 16.8073 22.1329C16.9005 22.133 16.9938 22.1331 17.087 22.1332C17.3802 22.1336 17.6733 22.1337 17.9664 22.1337C18.2681 22.1337 18.5698 22.1342 18.8714 22.1349C19.1311 22.1355 19.3907 22.1358 19.6504 22.1357C19.8052 22.1357 19.9599 22.1359 20.1147 22.1363C20.2875 22.1368 20.4603 22.1367 20.633 22.1364C20.6839 22.1367 20.7347 22.1369 20.787 22.1372C21.1812 22.1356 21.5303 22.1084 21.8438 21.8438C22.087 21.5361 22.1307 21.2604 22.1313 20.8715C22.1314 20.8256 22.1314 20.8256 22.1316 20.7787C22.1319 20.6768 22.1319 20.5749 22.1318 20.473C22.132 20.3997 22.1321 20.3264 22.1323 20.2531C22.1327 20.0543 22.1328 19.8556 22.1329 19.6569C22.1329 19.5326 22.133 19.4083 22.1331 19.2841C22.1335 18.8502 22.1337 18.4164 22.1337 17.9825C22.1337 17.5786 22.1342 17.1747 22.1349 16.7708C22.1355 16.4235 22.1358 16.0763 22.1357 15.7291C22.1357 15.5219 22.1359 15.3147 22.1364 15.1075C22.1368 14.9126 22.1368 14.7177 22.1365 14.5228C22.1364 14.4514 22.1365 14.3801 22.1368 14.3087C22.1489 13.625 22.1489 13.625 21.8438 13.0313C21.4702 12.7359 21.1051 12.743 20.6452 12.7432C20.5909 12.743 20.5366 12.7429 20.4806 12.7427C20.3013 12.7423 20.1221 12.7422 19.9428 12.7421C19.8495 12.742 19.7562 12.7419 19.663 12.7418C19.3699 12.7414 19.0768 12.7413 18.7836 12.7413C18.482 12.7413 18.1803 12.7408 17.8786 12.7401C17.619 12.7395 17.3593 12.7392 17.0997 12.7393C16.9449 12.7393 16.7901 12.7391 16.6353 12.7387C16.4625 12.7382 16.2898 12.7383 16.117 12.7386C16.0662 12.7384 16.0154 12.7381 15.963 12.7378C15.5688 12.7395 15.2197 12.7666 14.9063 13.0313Z" fill="#2DD2C5"/>
<path d="M2.94081 -0.0136166C3.00546 -0.0138975 3.0701 -0.0142166 3.13475 -0.0145707C3.30948 -0.0153951 3.4842 -0.0156185 3.65894 -0.0156784C3.7684 -0.0157453 3.87786 -0.0159459 3.98733 -0.0161938C4.37007 -0.01706 4.75282 -0.0174441 5.13556 -0.0173702C5.49092 -0.017314 5.84627 -0.0183019 6.20163 -0.0197837C6.50786 -0.0210145 6.81408 -0.0215123 7.12031 -0.0214525C7.3027 -0.0214288 7.48507 -0.0216882 7.66746 -0.022688C7.83926 -0.0236041 8.01104 -0.0235973 8.18284 -0.0229208C8.27492 -0.022778 8.367 -0.0235525 8.45907 -0.0243683C9.22553 -0.0190151 9.88519 0.253395 10.44 0.780947C10.9435 1.29743 11.2607 1.93223 11.2626 2.66175C11.2628 2.69648 11.263 2.73121 11.2632 2.76699C11.2638 2.8823 11.2637 2.99761 11.2636 3.11292C11.2639 3.19604 11.2642 3.27916 11.2646 3.36227C11.2654 3.58736 11.2656 3.81245 11.2657 4.03754C11.2658 4.17841 11.266 4.31928 11.2662 4.46016C11.2671 4.95232 11.2675 5.44447 11.2674 5.93664C11.2673 6.39424 11.2683 6.85184 11.2698 7.30944C11.271 7.70325 11.2715 8.09705 11.2715 8.49086C11.2714 8.72564 11.2717 8.96042 11.2727 9.19521C11.2736 9.41625 11.2736 9.63728 11.2729 9.85832C11.2728 9.93902 11.2731 10.0197 11.2736 10.1004C11.2793 10.9588 11.0745 11.6783 10.4691 12.3149C9.84691 12.9215 9.16177 13.1392 8.30922 13.1386C8.24457 13.1389 8.17993 13.1392 8.11528 13.1396C7.94055 13.1404 7.76583 13.1406 7.59109 13.1407C7.48163 13.1407 7.37217 13.141 7.2627 13.1412C6.87996 13.1421 6.49721 13.1424 6.11447 13.1424C5.75911 13.1423 5.40376 13.1433 5.0484 13.1448C4.74217 13.146 4.43595 13.1465 4.12972 13.1465C3.94733 13.1464 3.76496 13.1467 3.58257 13.1477C3.41077 13.1486 3.23899 13.1486 3.06719 13.1479C2.97511 13.1478 2.88303 13.1486 2.79096 13.1494C2.0245 13.144 1.36484 12.8716 0.810073 12.3441C0.306526 11.8276 -0.0106655 11.1928 -0.0125209 10.4633C-0.0127333 10.4285 -0.0129456 10.3938 -0.0131644 10.358C-0.0137535 10.2427 -0.0136814 10.1274 -0.0136038 10.0121C-0.0138845 9.92897 -0.0142036 9.84585 -0.0145579 9.76273C-0.0153839 9.53764 -0.0156058 9.31256 -0.0156657 9.08746C-0.0157324 8.94659 -0.0159328 8.80572 -0.016181 8.66485C-0.0170477 8.17269 -0.0174313 7.68053 -0.0173574 7.18837C-0.0173011 6.73076 -0.0182895 6.27316 -0.0197709 5.81556C-0.0209999 5.42175 -0.0214995 5.02795 -0.0214397 4.63415C-0.0214159 4.39936 -0.0216782 4.16458 -0.0226752 3.9298C-0.0235882 3.70875 -0.0235865 3.48773 -0.022908 3.26668C-0.0228106 3.18598 -0.0230275 3.10528 -0.023598 3.02458C-0.029269 2.16625 0.175531 1.44672 0.78096 0.810061C1.40312 0.203484 2.08826 -0.0142209 2.94081 -0.0136166ZM2.15626 2.15625C1.91301 2.46393 1.86931 2.7396 1.86875 3.12853C1.86864 3.15913 1.86853 3.18973 1.86843 3.22126C1.86813 3.32316 1.86817 3.42506 1.86821 3.52696C1.86807 3.60028 1.86791 3.6736 1.86773 3.74693C1.86731 3.94566 1.8672 4.1444 1.86717 4.34314C1.86714 4.46741 1.86704 4.59168 1.86692 4.71595C1.86648 5.14979 1.86629 5.58363 1.86633 6.01747C1.86636 6.42139 1.86586 6.82532 1.86512 7.22924C1.86451 7.57647 1.86426 7.92369 1.86429 8.27091C1.8643 8.4781 1.86417 8.68529 1.86367 8.89248C1.86321 9.0874 1.86321 9.2823 1.86355 9.47722C1.8636 9.54857 1.86349 9.61992 1.86321 9.69127C1.85114 10.375 1.85114 10.375 2.15626 10.9688C2.52987 11.2641 2.89491 11.257 3.35485 11.2568C3.40915 11.257 3.46346 11.2571 3.5194 11.2573C3.69869 11.2577 3.87798 11.2578 4.05727 11.2579C4.15052 11.258 4.24378 11.2581 4.33704 11.2582C4.63016 11.2586 4.92327 11.2587 5.21639 11.2587C5.51807 11.2587 5.81975 11.2592 6.12143 11.2599C6.38107 11.2605 6.64072 11.2608 6.90036 11.2607C7.05515 11.2607 7.20994 11.2609 7.36474 11.2613C7.53751 11.2618 7.71027 11.2617 7.88305 11.2614C7.93386 11.2617 7.98466 11.2619 8.03701 11.2622C8.43119 11.2606 8.78031 11.2334 9.09377 10.9688C9.33702 10.6611 9.38072 10.3854 9.38128 9.99648C9.38144 9.95057 9.38144 9.95057 9.38161 9.90374C9.3819 9.80184 9.38186 9.69995 9.38182 9.59805C9.38196 9.52472 9.38212 9.4514 9.3823 9.37808C9.38271 9.17934 9.38282 8.9806 9.38285 8.78187C9.38289 8.6576 9.38299 8.53333 9.38311 8.40905C9.38355 7.97522 9.38374 7.54138 9.3837 7.10754C9.38367 6.70361 9.38417 6.29969 9.38491 5.89576C9.38552 5.54854 9.38577 5.20132 9.38574 4.85409C9.38573 4.6469 9.38586 4.43971 9.38636 4.23252C9.38681 4.03761 9.38682 3.8427 9.38648 3.64778C9.38643 3.57643 9.38654 3.50508 9.38682 3.43373C9.39889 2.75002 9.39889 2.75002 9.09377 2.15625C8.72016 1.86088 8.35512 1.868 7.89518 1.86819C7.84088 1.86804 7.78657 1.86788 7.73063 1.86772C7.55134 1.86727 7.37205 1.86718 7.19276 1.86713C7.09951 1.86702 7.00625 1.8669 6.91299 1.86678C6.61987 1.8664 6.32676 1.86628 6.03364 1.86632C5.73196 1.86634 5.43028 1.86585 5.1286 1.86511C4.86896 1.86449 4.60931 1.86424 4.34967 1.86427C4.19488 1.86429 4.04009 1.86411 3.88529 1.86366C3.71252 1.8632 3.53976 1.86333 3.36698 1.86362C3.31617 1.86335 3.26537 1.86309 3.21302 1.86282C2.81884 1.86445 2.46972 1.89156 2.15626 2.15625Z" fill="#2DD2C5"/>
<path d="M2.9408 14.6114C3.00544 14.6111 3.07009 14.6108 3.13473 14.6104C3.30946 14.6096 3.48419 14.6094 3.65892 14.6093C3.76838 14.6093 3.87785 14.6091 3.98731 14.6088C4.37006 14.6079 4.7528 14.6076 5.13555 14.6076C5.49091 14.6077 5.84626 14.6067 6.20162 14.6052C6.50784 14.604 6.81406 14.6035 7.12029 14.6035C7.30268 14.6036 7.48506 14.6033 7.66745 14.6023C7.83925 14.6014 8.01102 14.6014 8.18283 14.6021C8.2749 14.6022 8.36698 14.6014 8.45906 14.6006C9.22551 14.606 9.88518 14.8784 10.4399 15.4059C10.9824 15.9623 11.2644 16.6183 11.2636 17.3937C11.2639 17.4394 11.2642 17.4851 11.2646 17.5322C11.2655 17.6825 11.2656 17.8327 11.2657 17.983C11.266 18.0882 11.2664 18.1934 11.2667 18.2986C11.2673 18.5189 11.2674 18.7392 11.2674 18.9595C11.2674 19.2404 11.2686 19.5214 11.2703 19.8023C11.2713 20.0196 11.2715 20.2369 11.2714 20.4542C11.2716 20.5577 11.272 20.6612 11.2727 20.7647C11.2787 21.7127 11.1491 22.4748 10.4691 23.1899C9.8469 23.7965 9.16176 24.0142 8.3092 24.0136C8.24456 24.0139 8.17991 24.0142 8.11527 24.0146C7.94054 24.0154 7.76581 24.0156 7.59108 24.0157C7.48162 24.0157 7.37215 24.0159 7.26269 24.0162C6.87994 24.0171 6.4972 24.0174 6.11445 24.0174C5.75909 24.0173 5.40374 24.0183 5.04838 24.0198C4.74216 24.021 4.43594 24.0215 4.12971 24.0215C3.94732 24.0214 3.76494 24.0217 3.58255 24.0227C3.41075 24.0236 3.23898 24.0236 3.06717 24.0229C2.9751 24.0228 2.88302 24.0236 2.79094 24.0244C2.02449 24.019 1.36482 23.7466 0.810058 23.2191C0.267594 22.6627 -0.0143956 22.0067 -0.0136187 21.2313C-0.0139336 21.1856 -0.0142484 21.1399 -0.0145728 21.0928C-0.0154592 20.9425 -0.0156463 20.7923 -0.0157473 20.642C-0.0160489 20.5368 -0.0163643 20.4316 -0.0166929 20.3264C-0.0172533 20.1061 -0.017428 19.8858 -0.0173724 19.6655C-0.0173628 19.3846 -0.0186414 19.1036 -0.0202572 18.8227C-0.0213046 18.6054 -0.0214896 18.3881 -0.0214402 18.1708C-0.0215501 18.0673 -0.0219609 17.9638 -0.0226901 17.8603C-0.0287424 16.9123 0.100897 16.1502 0.780945 15.4351C1.4031 14.8285 2.08824 14.6108 2.9408 14.6114ZM2.15625 16.7813C1.90087 17.1043 1.86793 17.4023 1.86819 17.8077C1.86803 17.8437 1.86788 17.8797 1.86771 17.9169C1.86727 18.0353 1.86718 18.1537 1.86713 18.2721C1.86698 18.3549 1.86682 18.4376 1.86665 18.5204C1.86637 18.6937 1.86629 18.867 1.86631 19.0403C1.86632 19.2617 1.86568 19.4831 1.86487 19.7045C1.86435 19.8754 1.86425 20.0463 1.86428 20.2172C1.86422 20.2988 1.86402 20.3804 1.86365 20.462C1.86319 20.5764 1.86333 20.6908 1.86361 20.8052C1.86335 20.8384 1.86309 20.8717 1.86281 20.906C1.86499 21.2564 1.92546 21.5704 2.15625 21.8438C2.52985 22.1391 2.89489 22.132 3.35484 22.1318C3.40914 22.132 3.46344 22.1321 3.51939 22.1323C3.69868 22.1327 3.87796 22.1328 4.05725 22.1329C4.15051 22.133 4.24376 22.1331 4.33702 22.1332C4.63014 22.1336 4.92326 22.1337 5.21638 22.1337C5.51806 22.1337 5.81974 22.1342 6.12142 22.1349C6.38106 22.1355 6.6407 22.1358 6.90034 22.1357C7.05514 22.1357 7.20993 22.1359 7.36472 22.1363C7.5375 22.1368 7.71026 22.1367 7.88303 22.1364C7.93384 22.1367 7.98465 22.1369 8.037 22.1372C8.43117 22.1356 8.7803 22.1084 9.09375 21.8438C9.34913 21.5207 9.38207 21.2227 9.38181 20.8173C9.38197 20.7813 9.38212 20.7453 9.38229 20.7082C9.38273 20.5897 9.38282 20.4713 9.38287 20.3529C9.38302 20.2701 9.38318 20.1874 9.38335 20.1046C9.38363 19.9313 9.38371 19.758 9.38369 19.5847C9.38368 19.3633 9.38432 19.1419 9.38513 18.9205C9.38565 18.7496 9.38575 18.5787 9.38572 18.4078C9.38578 18.3262 9.38598 18.2446 9.38634 18.163C9.38681 18.0486 9.38667 17.9343 9.38639 17.8198C9.38665 17.7866 9.38691 17.7533 9.38719 17.719C9.38501 17.3686 9.32454 17.0546 9.09375 16.7813C8.72015 16.4859 8.35511 16.493 7.89516 16.4932C7.84086 16.493 7.78656 16.4929 7.73061 16.4927C7.55132 16.4923 7.37204 16.4922 7.19275 16.4921C7.09949 16.492 7.00624 16.4919 6.91298 16.4918C6.61986 16.4914 6.32674 16.4913 6.03362 16.4913C5.73194 16.4913 5.43026 16.4908 5.12858 16.4901C4.86894 16.4895 4.6093 16.4892 4.34965 16.4893C4.19486 16.4893 4.04007 16.4891 3.88528 16.4887C3.7125 16.4882 3.53974 16.4883 3.36697 16.4886C3.31616 16.4884 3.26535 16.4881 3.213 16.4878C2.81883 16.4895 2.4697 16.5166 2.15625 16.7813Z" fill="#2DD2C5"/>
<path d="M15.6908 -0.0136166C15.7554 -0.0138975 15.8201 -0.0142166 15.8847 -0.0145707C16.0595 -0.0153951 16.2342 -0.0156185 16.4089 -0.0156784C16.5184 -0.0157453 16.6278 -0.0159459 16.7373 -0.0161938C17.1201 -0.01706 17.5028 -0.0174441 17.8855 -0.0173702C18.2409 -0.017314 18.5963 -0.0183019 18.9516 -0.0197837C19.2578 -0.0210145 19.5641 -0.0215123 19.8703 -0.0214525C20.0527 -0.0214288 20.2351 -0.0216882 20.4174 -0.022688C20.5892 -0.0236041 20.761 -0.0235973 20.9328 -0.0229208C21.0249 -0.022778 21.117 -0.0235525 21.2091 -0.0243683C21.9755 -0.0190151 22.6352 0.253395 23.1899 0.780947C23.7324 1.33734 24.0144 1.9933 24.0136 2.76868C24.0139 2.81439 24.0142 2.8601 24.0146 2.9072C24.0155 3.05746 24.0156 3.20771 24.0157 3.35797C24.016 3.46317 24.0164 3.56838 24.0167 3.67358C24.0173 3.89387 24.0174 4.11417 24.0174 4.33446C24.0174 4.61542 24.0186 4.89636 24.0203 5.17731C24.0213 5.3946 24.0215 5.61188 24.0214 5.82917C24.0216 5.93268 24.022 6.03619 24.0227 6.13969C24.0287 7.08766 23.8991 7.84982 23.2191 8.56494C22.5969 9.17152 21.9118 9.38923 21.0592 9.38862C20.9946 9.3889 20.9299 9.38922 20.8653 9.38957C20.6905 9.3904 20.5158 9.39062 20.3411 9.39068C20.2316 9.39075 20.1222 9.39095 20.0127 9.3912C19.6299 9.39206 19.2472 9.39245 18.8645 9.39237C18.5091 9.39232 18.1537 9.39331 17.7984 9.39479C17.4922 9.39602 17.1859 9.39652 16.8797 9.39646C16.6973 9.39643 16.5149 9.39669 16.3326 9.39769C16.1608 9.39861 15.989 9.3986 15.8172 9.39792C15.7251 9.39778 15.633 9.39856 15.5409 9.39937C14.7745 9.39402 14.1148 9.12161 13.5601 8.59406C13.0176 8.03766 12.7356 7.3817 12.7364 6.60632C12.7361 6.56061 12.7358 6.5149 12.7354 6.46781C12.7345 6.31754 12.7344 6.16729 12.7343 6.01703C12.734 5.91183 12.7336 5.80663 12.7333 5.70143C12.7327 5.48113 12.7326 5.26084 12.7326 5.04054C12.7326 4.75958 12.7314 4.47864 12.7297 4.19769C12.7287 3.9804 12.7285 3.76312 12.7286 3.54584C12.7284 3.44233 12.728 3.33882 12.7273 3.23531C12.7213 2.28734 12.8509 1.52519 13.5309 0.810061C14.1531 0.203484 14.8382 -0.0142209 15.6908 -0.0136166ZM14.9062 2.15625C14.6509 2.47927 14.6179 2.77727 14.6182 3.18272C14.618 3.21873 14.6179 3.25475 14.6177 3.29185C14.6173 3.41027 14.6172 3.52868 14.6171 3.6471C14.617 3.72987 14.6168 3.81265 14.6167 3.89542C14.6164 4.06871 14.6163 4.242 14.6163 4.41529C14.6163 4.63668 14.6157 4.85807 14.6149 5.07946C14.6143 5.25037 14.6143 5.42128 14.6143 5.59219C14.6142 5.67378 14.614 5.75537 14.6137 5.83696C14.6132 5.95137 14.6133 6.06575 14.6136 6.18015C14.6133 6.21343 14.6131 6.24671 14.6128 6.28099C14.615 6.63136 14.6755 6.94544 14.9062 7.21875C15.2799 7.51412 15.6449 7.507 16.1048 7.50681C16.1591 7.50697 16.2134 7.50713 16.2694 7.50729C16.4487 7.50773 16.628 7.50782 16.8073 7.50788C16.9005 7.50799 16.9938 7.5081 17.087 7.50823C17.3801 7.50861 17.6733 7.50872 17.9664 7.50869C18.2681 7.50866 18.5697 7.50915 18.8714 7.50989C19.1311 7.51051 19.3907 7.51076 19.6503 7.51073C19.8051 7.51072 19.9599 7.51089 20.1147 7.51135C20.2875 7.51181 20.4603 7.51167 20.633 7.51139C20.6838 7.51165 20.7346 7.51192 20.787 7.51219C21.1812 7.51055 21.5303 7.48345 21.8438 7.21875C22.0991 6.89574 22.1321 6.59773 22.1318 6.19229C22.132 6.15627 22.1321 6.12026 22.1323 6.08315C22.1327 5.96474 22.1328 5.84632 22.1329 5.72791C22.133 5.64513 22.1332 5.56236 22.1333 5.47958C22.1336 5.30629 22.1337 5.133 22.1337 4.95971C22.1337 4.73832 22.1343 4.51694 22.1351 4.29555C22.1357 4.12463 22.1357 3.95372 22.1357 3.78281C22.1358 3.70122 22.136 3.61963 22.1363 3.53804C22.1368 3.42364 22.1367 3.30925 22.1364 3.19485C22.1367 3.16157 22.1369 3.1283 22.1372 3.09402C22.135 2.74364 22.0745 2.42956 21.8438 2.15625C21.4701 1.86088 21.1051 1.868 20.6452 1.86819C20.5909 1.86804 20.5366 1.86788 20.4806 1.86772C20.3013 1.86727 20.122 1.86718 19.9427 1.86713C19.8495 1.86702 19.7562 1.8669 19.663 1.86678C19.3699 1.8664 19.0767 1.86628 18.7836 1.86632C18.4819 1.86634 18.1803 1.86585 17.8786 1.86511C17.6189 1.86449 17.3593 1.86424 17.0997 1.86427C16.9449 1.86429 16.7901 1.86411 16.6353 1.86366C16.4625 1.8632 16.2897 1.86333 16.117 1.86362C16.0662 1.86335 16.0154 1.86309 15.963 1.86282C15.5688 1.86445 15.2197 1.89156 14.9062 2.15625Z" fill="#2DD2C5"/>
</g>
<defs>
<clipPath id="clip0_5_19">
<rect width="24" height="24" fill="white"/>
</clipPath>
</defs>
</svg>
